<svg width="22.5" height="22.5" viewBox="0 0 24 24" fill="none" xmlns="http://www.w3.org/2000/svg">
  <circle cx="12" cy="12" r="3" stroke="#fff" stroke-width="2" fill="none"/>
  <path d="M19.4 15a1.65 1.65 0 0 0 .33 1.82l.06.06a2 2 0 1 1-2.83 2.83l-.06-.06A1.65 1.65 0 0 0 15 19.4a1.65 1.65 0 0 0-1.5 1.1V21a2 2 0 1 1-4 0v-.09A1.65 1.65 0 0 0 9 19.4a1.65 1.65 0 0 0-1.82-.33l-.06.06a2 2 0 1 1-2.83-2.83l.06-.06A1.65 1.65 0 0 0 4.6 15a1.65 1.65 0 0 0-1.1-1.5H3a2 2 0 1 1 0-4h.09A1.65 1.65 0 0 0 4.6 9a1.65 1.65 0 0 0-.33-1.82l-.06-.06a2 2 0 1 1 2.83-2.83l.06.06A1.65 1.65 0 0 0 9 4.6c.2-.08.41-.13.62-.16V4a2 2 0 1 1 4 0v.09c.21.03.42.08.62.16a1.65 1.65 0 0 0 1.5 1.1c.51 0 1-.2 1.36-.56l.06-.06a2 2 0 1 1 2.83 2.83l-.06.06A1.65 1.65 0 0 0 19.4 9c.08.2.13.41.16.62H21a2 2 0 1 1 0 4h-.09c-.03-.21-.08-.42-.16-.62z" stroke="#fff" stroke-width="2" stroke-linecap="round" stroke-linejoin="round" fill="none"/>
</svg> 