<svg width="24" height="24" viewBox="0 0 24 24" fill="none" xmlns="http://www.w3.org/2000/svg">
  <path d="M12 15.5A3.5 3.5 0 1 0 12 8.5a3.5 3.5 0 0 0 0 7zm7.43-2.9l1.77-1.02a.5.5 0 0 0 .18-.68l-1.68-2.92a.5.5 0 0 0-.61-.23l-2.08.83a7.03 7.03 0 0 0-1.5-.87l-.32-2.23A.5.5 0 0 0 14 4h-4a.5.5 0 0 0-.5.42l-.32 2.23a7.03 7.03 0 0 0-1.5.87l-2.08-.83a.5.5 0 0 0-.61.23l-1.68 2.92a.5.5 0 0 0 .18.68l1.77 1.02a7.07 7.07 0 0 0 0 1.74l-1.77 1.02a.5.5 0 0 0-.18.68l1.68 2.92a.5.5 0 0 0 .61.23l2.08-.83c.47.34.97.63 1.5.87l.32 2.23A.5.5 0 0 0 10 20h4a.5.5 0 0 0 .5-.42l.32-2.23c.53-.24 1.03-.53 1.5-.87l2.08.83a.5.5 0 0 0 .61-.23l1.68-2.92a.5.5 0 0 0-.18-.68l-1.77-1.02c.07-.29.07-.59 0-.88z" fill=\"currentColor\"/>
</svg>
